<?xml version="1.0" encoding="UTF-8" standalone="no"?>
<!-- Generator: Adobe Illustrator 21.0.0, SVG Export Plug-In . SVG Version: 6.00 Build 0)  -->

<svg
   xmlns:dc="http://purl.org/dc/elements/1.1/"
   xmlns:cc="http://creativecommons.org/ns#"
   xmlns:rdf="http://www.w3.org/1999/02/22-rdf-syntax-ns#"
   xmlns:svg="http://www.w3.org/2000/svg"
   xmlns="http://www.w3.org/2000/svg"
   xmlns:sodipodi="http://sodipodi.sourceforge.net/DTD/sodipodi-0.dtd"
   xmlns:inkscape="http://www.inkscape.org/namespaces/inkscape"
   version="1.1"
   id="Ebene_1"
   x="0px"
   y="0px"
   viewBox="0 0 126.1125 125.50948"
   xml:space="preserve"
   sodipodi:docname="icon.svg"
   width="126.1125"
   height="125.50948"
   inkscape:version="0.92.1 r15371"><metadata
     id="metadata41"><rdf:RDF><cc:Work
         rdf:about=""><dc:format>image/svg+xml</dc:format><dc:type
           rdf:resource="http://purl.org/dc/dcmitype/StillImage" /><dc:title></dc:title></cc:Work></rdf:RDF></metadata><defs
     id="defs39" /><sodipodi:namedview
     pagecolor="#ffffff"
     bordercolor="#666666"
     borderopacity="1"
     objecttolerance="10"
     gridtolerance="10"
     guidetolerance="10"
     inkscape:pageopacity="0"
     inkscape:pageshadow="2"
     inkscape:window-width="2560"
     inkscape:window-height="1392"
     id="namedview37"
     showgrid="false"
     fit-margin-top="0"
     fit-margin-left="0"
     fit-margin-right="0"
     fit-margin-bottom="0"
     inkscape:zoom="1.5733333"
     inkscape:cx="63.2"
     inkscape:cy="62.609475"
     inkscape:window-x="0"
     inkscape:window-y="48"
     inkscape:window-maximized="1"
     inkscape:current-layer="Ebene_1" /><style
     type="text/css"
     id="style2">
	.st0{display:none;}
	.st1{display:inline;}
	.st2{fill:#809FCD;}
	.st3{fill:#D1D1D1;}
	.st4{fill:#F1E4C4;}
	.st5{fill:#A5CB7D;}
	.st6{fill:#FDBA32;}
	.st7{fill-rule:evenodd;clip-rule:evenodd;fill:#1D2839;}
	.st8{fill:#B34127;}
	.st9{fill:#35210B;}
</style><g
     class="st0"
     id="g8"
     style="display:none"
     transform="translate(-11.8,-12.1)"><path
       class="st1"
       d="m 75,18 c -19.3,0 -35,15.7 -35,35 0,19.3 35,57 35,57 0,0 35,-37.7 35,-57 C 110,33.7 94.3,18 75,18 Z m 0,44 c -5,0 -9,-4 -9,-9 0,-5 4,-9 9,-9 5,0 9,4 9,9 0,5 -4,9 -9,9 z"
       id="path4"
       inkscape:connector-curvature="0"
       style="display:inline" /><path
       class="st1"
       d="M 113.7,92 H 97.1 C 86.3,106.9 75,119 75,119 75,119 63.7,106.9 52.9,92 H 36.3 l -24.4,36 h 126.2 z"
       id="path6"
       inkscape:connector-curvature="0"
       style="display:inline" /></g><g
     id="g34"
     transform="translate(-11.8,-12.1)"><g
       id="g20"><polygon
         class="st2"
         points="45.6,105 105.7,105 75.9,74.7 46.6,103 "
         id="polygon10"
         style="fill:#809fcd" /><polygon
         class="st3"
         points="106.1,98 106.1,44.9 75.9,74.7 104.2,104 "
         id="polygon12"
         style="fill:#d1d1d1" /><rect
         x="84.099998"
         y="70.099998"
         transform="matrix(0.7071,-0.7071,0.7071,0.7071,-36.9113,88.2447)"
         class="st4"
         width="8"
         height="37.099998"
         id="rect14"
         style="fill:#f1e4c4" /><polygon
         class="st5"
         points="46.3,101.3 101,46.5 45,45.1 43.3,99.5 "
         id="polygon16"
         style="fill:#a5cb7d" /><rect
         x="35.200001"
         y="70.199997"
         transform="matrix(0.707,-0.7072,0.7072,0.707,-30.1643,75.6609)"
         class="st6"
         width="82"
         height="8"
         id="rect18"
         style="fill:#fdba32" /></g><path
       class="st7"
       d="m 136.4,72.5 c -0.8,-0.3 -1.6,-0.6 -2.4,-0.6 -1.5,0.1 -2.9,0.4 -4.4,0.7 -1.8,0.4 -3.6,0.8 -5.4,1.1 -1.1,0.2 -2.2,0 -3.1,-0.8 -0.8,-0.7 -1.6,-1.4 -2.7,-0.4 0,-0.7 -0.1,-1.1 -0.1,-1.7 -1.1,0 -2.1,0 -3.2,0 -0.9,-8 -3.8,-15 -8.9,-21.4 0.9,-0.7 1.7,-1.3 2.5,-2 -0.5,-0.6 -0.9,-1 -1.4,-1.5 1.2,0 1.5,-0.7 1.6,-1.7 0.2,-0.8 0.4,-1.8 1,-2.4 0.9,-1 2,-1.8 3.1,-2.5 1.4,-0.9 2.9,-1.7 4.3,-2.6 1.1,-0.8 2.1,-1.7 2.6,-3.1 0.4,-1.2 0.3,-2.2 -0.6,-3.2 -0.9,-0.9 -2,-1.1 -3.2,-0.6 -0.9,0.5 -1.9,1.1 -2.5,1.9 -1.1,1.4 -1.9,2.9 -2.8,4.4 -0.7,1.1 -1.4,2.3 -2.4,3.3 -0.7,0.7 -1.6,1.2 -2.5,1.4 -1,0.3 -2.1,0.2 -2.2,1.6 -0.5,-0.4 -0.8,-0.7 -1.4,-1.2 -0.7,0.9 -1.4,1.7 -2,2.5 -6.4,-5.1 -13.4,-8 -21.3,-8.9 0,-0.5 0,-0.9 0,-1.4 0,-1.7 0,-1.7 -1.6,-1.9 -0.1,0 -0.1,-0.1 -0.1,-0.1 0.5,-0.6 0.6,-1.3 0,-1.9 -1.4,-1.4 -1.5,-3.1 -1.2,-4.9 0.4,-1.9 0.9,-3.7 1.3,-5.5 0.4,-1.6 0.6,-3.2 0.1,-4.8 -0.4,-1.4 -1.4,-2.2 -2.8,-2.2 -1.8,0 -2.9,1.2 -3.2,3.2 -0.3,2.2 0.5,4.2 1,6.2 0.4,1.6 0.7,3.2 0.8,4.9 0,0.9 -0.4,1.8 -0.9,2.6 -0.6,0.8 -1.1,1.5 -0.3,2.5 -0.3,0 -0.5,0.1 -0.6,0 -0.9,-0.1 -1.1,0.2 -1,1.1 0.1,0.7 0,1.4 0,2.1 -3.9,0.4 -7.7,1.4 -11.2,2.8 -3.6,1.5 -6.9,3.5 -10.1,6 -0.7,-0.8 -1.3,-1.6 -1.9,-2.4 -0.4,0.3 -0.6,0.5 -0.8,0.7 -0.2,0.2 -0.4,0.4 -0.7,0.6 -0.3,-1.2 -0.6,-1.3 -1.8,-1.5 -0.8,-0.2 -1.8,-0.5 -2.4,-1 -1.1,-1.1 -2,-2.4 -2.9,-3.7 -1,-1.5 -1.8,-3.1 -2.9,-4.5 -0.7,-0.9 -1.8,-1.6 -2.8,-1.9 -2.1,-0.7 -4.2,1.3 -3.5,3.4 0.3,1 1,2 1.8,2.7 1.1,1 2.5,1.7 3.7,2.5 1.3,0.9 2.7,1.6 3.9,2.6 1,0.8 1.7,1.8 1.7,3.1 0,1 0.3,1.7 1.6,1.7 -0.4,0.5 -0.8,0.8 -1.2,1.3 0.8,0.7 1.6,1.3 2.3,2 -2.6,3.2 -4.6,6.6 -6.1,10.2 -1.5,3.6 -2.4,7.4 -2.9,11.3 -1.1,0 -2,0 -3,0 0,0.6 -0.1,1.2 -0.1,1.8 -0.8,-0.7 -1.5,-0.7 -2.1,0 -1,1.1 -2.4,1.3 -3.7,1.2 -1,-0.1 -2.1,-0.3 -3.1,-0.6 -1.4,-0.3 -2.8,-0.8 -4.2,-1.1 -1.3,-0.3 -2.7,-0.4 -4,0.1 -1.4,0.5 -2.3,1.5 -2.3,2.8 0,1.3 0.8,2.5 2.3,2.9 1.1,0.3 2.3,0.3 3.4,0.2 1.5,-0.2 3,-0.8 4.5,-1.1 1.4,-0.3 2.9,-0.6 4.4,-0.6 0.8,0 1.7,0.3 2.4,0.8 0.8,0.6 1.5,1.1 2.6,0.3 0,0.7 0,1.1 0,1.7 1,0 2,0 3.1,0 0.9,8 3.8,15.1 9,21.5 -0.8,0.7 -1.6,1.3 -2.4,1.9 0.5,0.5 0.8,0.9 1.3,1.4 -1.2,0 -1.4,0.7 -1.6,1.6 -0.2,0.9 -0.5,1.9 -1,2.5 -0.9,1 -2.1,1.8 -3.2,2.6 -1.5,1 -3.1,1.8 -4.5,2.8 -1.1,0.7 -1.9,1.7 -2.3,2.9 -0.4,1.1 -0.2,2.2 0.7,3.1 0.9,0.9 2,1.1 3.1,0.6 0.9,-0.5 1.9,-1.1 2.6,-1.9 1,-1.3 1.8,-2.8 2.7,-4.2 0.9,-1.3 1.8,-2.7 2.8,-3.8 0.6,-0.6 1.5,-1 2.4,-1.2 1,-0.2 1.8,-0.3 1.9,-1.6 0.5,0.4 0.8,0.8 1.4,1.2 0.7,-0.8 1.4,-1.6 2,-2.3 6.3,5 13.4,7.9 21.3,8.8 0,0.5 0,0.8 0,1.2 0,1.8 0,1.8 1.8,2 -0.5,0.7 -0.7,1.4 0,2.1 1.3,1.3 1.4,3 1.1,4.6 -0.4,2.3 -1.1,4.6 -1.6,6.9 -0.3,1.4 -0.3,2.8 0.3,4.2 0.5,1.1 1.4,1.8 2.7,1.7 1.3,0 2.2,-0.7 2.6,-1.8 0.3,-1 0.5,-2.1 0.4,-3.1 -0.2,-1.6 -0.7,-3.2 -1,-4.8 -0.3,-1.4 -0.7,-2.8 -0.7,-4.3 0,-1 0.3,-2.1 0.8,-2.9 0.5,-0.9 1.3,-1.6 0.4,-2.7 0.3,0 0.5,0 0.7,0 0.8,0.1 1.1,-0.2 1,-1 -0.1,-0.7 0,-1.4 0,-2.2 8,-0.9 15,-3.8 21.3,-8.9 0.7,0.8 1.4,1.6 2,2.4 0.3,-0.3 0.5,-0.5 0.7,-0.7 0.2,-0.2 0.4,-0.4 0.7,-0.6 0.3,1.3 0.6,1.5 1.8,1.5 1,0 1.9,0.4 2.6,1.2 1,1.2 1.9,2.5 2.8,3.8 0.9,1.4 1.7,2.9 2.7,4.2 0.6,0.8 1.6,1.4 2.5,1.9 1.1,0.5 2.2,0.4 3.2,-0.5 0.9,-0.9 1.2,-2.1 0.6,-3.1 -0.5,-1 -1.2,-2 -2.1,-2.7 -1.4,-1.1 -3.1,-1.9 -4.6,-2.9 -1.1,-0.7 -2.2,-1.4 -3.1,-2.4 -0.6,-0.6 -1,-1.6 -1.2,-2.4 -0.2,-1 -0.3,-1.9 -1.6,-2 0.4,-0.4 0.8,-0.8 1.2,-1.3 -0.8,-0.7 -1.6,-1.4 -2.4,-2.1 5,-6.3 7.9,-13.4 8.8,-21.3 1.1,0 2.2,0 3.3,0 0,-0.7 0,-1.2 0,-1.9 1,0.9 1.7,0.5 2.4,-0.1 0.5,-0.4 1.1,-0.8 1.7,-0.9 0.9,-0.1 1.9,-0.2 2.8,0 2,0.4 3.9,1 5.9,1.4 1.7,0.4 3.4,0.6 5,-0.2 1.1,-0.5 1.7,-1.4 1.7,-2.6 0.1,-0.7 -0.4,-1.6 -1.5,-2.1 z M 75.1,103.8 C 59.3,103.8 46.5,91 46.5,75.2 c 0,-15.8 12.8,-28.6 28.6,-28.6 15.8,0 28.6,12.8 28.6,28.6 0,15.8 -12.8,28.6 -28.6,28.6 z"
       id="path22"
       inkscape:connector-curvature="0"
       style="clip-rule:evenodd;fill:#1d2839;fill-rule:evenodd" /><g
       id="g26"><path
         class="st4"
         d="m 62.5,63.3 h 8.6 v 0.2 c 0,2.1 -0.8,5.3 -2.7,7.3 -1.9,2 -4.1,2.4 -6.2,2.4 -2.1,0 -4.3,-0.3 -6.4,-2.4 -1,-1 -2.6,-3.2 -2.6,-6.6 0,-2.8 1,-5.1 2.5,-6.6 2.1,-2.2 4.8,-2.5 6.8,-2.5 1.4,0 3.3,0.2 4.9,1.3 1.2,0.8 2.2,2 2.8,3.1 l -3.6,2 c -0.3,-0.7 -0.9,-1.4 -1.5,-1.9 -0.8,-0.6 -1.7,-0.8 -2.7,-0.8 -1.6,0 -2.8,0.5 -3.6,1.4 -1,1 -1.5,2.5 -1.5,4.1 0,2 0.7,3.3 1.5,4 1,1 2.2,1.4 3.5,1.4 1.7,0 2.6,-0.6 3,-0.9 0.1,-0.1 0.9,-0.8 1.3,-2.1 h -4.2 v -3.4 z"
         id="path24"
         inkscape:connector-curvature="0"
         style="fill:#f1e4c4" /></g><g
       id="g32"><path
         class="st8"
         d="m 95.4,89.9 c 0.5,0 0.8,-0.4 0.9,-0.8 0.4,-17.3 14.8,-19.9 14.8,-34.1 0,-15.6 -15.7,-15.6 -15.7,-15.6 0,0 -15.7,0 -15.7,15.6 0,14.3 14.4,16.8 14.8,34.1 0.1,0.5 0.4,0.8 0.9,0.8 z"
         id="path28"
         inkscape:connector-curvature="0"
         style="fill:#b34127" /><circle
         class="st9"
         cx="95.300003"
         cy="55"
         r="5.4000001"
         id="circle30"
         style="fill:#35210b" /></g></g></svg>